/* XPM */
static char *d9ed1ea690254cd5dd063e2e0c809e83SuRpYvru9Gta8n9o[] = {
/* columns rows colors chars-per-pixel */
"55 55 11 1 ",
"  c black",
". c #ED0000",
"X c #B76F3D",
"o c #DF7126",
"O c #6ABE30",
"+ c #37946E",
"@ c #F6EB00",
"# c #D9A066",
"$ c #99E550",
"% c #3347C0",
"& c #639BFF",
/* pixels */
"$$$$O$$$$$$$$$$$$$$$$$$$$$$$$$$$$$$OOO$$$$$$$$$$$$$$$$$",
"$$$$OO$$$$$$$$$$$$$$$$$$$$$$$$$$$$$OO$$$$$$$$$$$$$$$$$$",
"$$$O$$$$$$$$$$$$$$$$$$$$$$$$$$$$$$$O$$$$$$$$$$$$$$$$$$$",
"$$$$$$$$O$$$$$$$$$$$$$$$$$$$$$$$$$$$$$$$$$$$$$$$$$$$$$$",
"$$$$$$$$$$$$$$$$$$$$$$$$$$$$$$$$$$$$$$$$$$$$$$$$$$$$$$$",
"$$$$$$$$$$$$$$$$$$$$$$$$$$$$$$$$$$$$$$$$$$$$$$$$$$$$$$$",
"$$$$$$$$$$$$$$$$$$$$$$$$$$$$$$$$$$$$$$$$$$$$$$O$$$$$$$$",
"$$$$$$$$$$$O$$$$$$$$$$$$$$$$$$$$$$$$$$$$$$$$$$X##O$$$$$",
"$$$$$$$$$$$O$O$$$$$$$$$$$$$$$$$$$$$$$$$$$$$$OX##$$$$$$$",
"$$$$$$$$O$O#X#O$$$$$$$$$$$$+$O$+$$$$$$$$$$$$$$$##X$$$$$",
"$$$$$$$$OOX####O$O$$$$$$$O$++O++O$$$$$$$$$$$$$OX#O$$$$$",
"$$$$$$$$$$OX$X#$O$$$$$$$$$O$+O+O$O$$$$$$$$$$$$$$O$$$$$$",
"$$$$$$$$$$$$$$$$$$$$$$$$$$$$O$$$$$$$$$$$$$$$$$$$$$$$$$$",
"$$$$$$$$$$$$$$$$$$$$$ $$$$$$$$$$$$$ $$$$$$$$$$$$$$$$$$$",
"$$$$$$$$$$$$$$$$$$$$$ $$$$$$$$$$$$$ $$$$$$$$$$$$$$$$$$$",
"$$$$O$$$$$$$$$$$$$$$ @ $$$$$$$$$$$ @ $$$$$$$$$$$$$$$$$$",
"$$$$OO$$$$$$$$$$$$$$ @ $$$$$$$$$$$ @ $$$$$$$$$$$$$$$$$$",
"$$$$$$$$O$$$$$$$$$$$ @ $$$$$$$$$$+ @ +$$$$$$$$$$$$$$$$$",
"$$$$$$$$$$$$$$$$$$$ @@@ $$$$$$$$O @@@ O$$$$$$$$$$$$$$$$",
"$$$$$$$$$$$$$$$$$$$ @@@ $$$$$$$$$ @@@ $$$$$$$$$$$$$$$$$",
"$$$$$$$$$$$$$$$$$$$ @    $$$$$$$    @ $$$$$$$$$$$$$$O$$",
"$$$$$$$$$$$$$$$$$$$  @ @o  $$$  o@ @  $$$$$$$$$$$$O$O$$",
"$$$$$$$$$$$$$$$$$$ @ ooo%%%   %%%ooo @ $$$$$$$$$$$$$$$$",
"$$$$$$$$$$$$$$$$$ @oo%@%@%&%%%&%@%@%oo@ $$$$$$$$$$$$$$$",
"$$$$$$$$$$$$$$O$$ o......@%&%&%@......o $O$$$$$$$$$$$$$",
"$$$$$$$$$$$$$$$$ o%.     .%&%&%.     .%o OO$O$$$$$$$$$$",
"$$$$$$$$$$$$$$$$ %%.  ooo .%&%. ooo  .%% $O$O$$$$$$$$$$",
"$$$$$$$$$$$$$$$ @ %. o@&@o .%. o@&@o .% @ $$$$$$$$$$$$$",
"$$$$$$$$$$$$$$ @o %. o& &o .%. o& &o .% o@ $$$$$$$$$$$$",
"$$$+$O$$$$$$$ @ooo . o@&@o .%. o@&@o . ooo@ $$$$$$$$$$$",
"$$$++O$+$$$$ @oo    . ooo  .%.  ooo .    oo@ $$$$$$$$$$",
"$$$O+O+O$O$$      %. .     ...     . .% $    $$$$$$$$$$",
"$$$$O$$O$$$$$$$$ %... ............. ...% $$$$$$$$$$$$$$",
"$$$$$$$$$$$$$$$ %.   & %&&&...&&&% &   .% $$$$$$$$$$$$$",
"$$$$$$$$$$$$$$$     &&& %&&&.&&&% &&&     $$$$$$$$$$$$$",
"$$$$$$$$$$$$$$$$$$ &&    &&%.%&&    && $$$$$$$$$$$$$$$$",
"$$$$$$$$$$$$$$$$$$     && %...% &&     $$$$$$$$$$$$$$$$",
"$$$$$$$$$$$$$$$$$$$$$ &&   ...   && $$$$$$$$$$$$$$$$$$$",
"$$$$$$$$$$$$$$$$$$$$$   $$$ . $$$   $$$$$O$$$O$$$$$$$$$",
"$$$$$$$$$$$$$$$$$$$$$$$$$$$$ $$$$$$$$$$$$OO$OO$$$$$$$$$",
"$$$$$$$$$$$$$$$$$$$$$$$$$$$$$$$$$$$$$$$O$$O$O$$$$$$$$$$",
"$$$$$$$$$$$$O$$$$$$$$$$$$$$$$$$$$$$$$$$O$$$$$$$$$$$$$$$",
"$$$$$$$$$$O$O$O$$$$$$$$$$$$$$$$$$$$$$$$$$$$$$$O$$$$$$$$",
"$$$$$$$$O$$O$O$$$$$$$$$$$$$$$$$$$$$$$$$$$$$$$$$$$$$$$$$",
"$$$$$$$$$$$O$$$$$$$$$O$$O$$$$$$$$$$$$$$$$$$$$$$$$$$$$$$",
"$$$$$$$$$$$$$$$$$$$$$OO##XO$$O$$$$$$$$$$$$$$$$$$$$$$$$$",
"$$$$$$$$$$$$$$$$$$$$$OX##O$$O$$$$$$$$$$$$$$$$$$O$$$$$$$",
"$$$$$$$$$$$$$$$$$$$$O$$X$XO$$$$$$$$$$$$$$$$$+$$O+$$$$$$",
"$$$$$$$$$$$$$$$$$$$$$$$$$$$$$$$$$$$$$$$$$$$$$+$+$$$$$$O",
"$$$$$$$$$$$$$$$$$$$$$$$$$$$$$$$$$$$$$$$$$$$O$+O+$O$$$$O",
"$$O$$$$$$$$$$$$$$$$$$$$$$$$$$$$$$$$$$$$$$$$$$O$$O$$$$$$",
"$$O$$$$$$$$$$$$$$$$$$$$$$$$$$$$$$$$$$$$$$$$$$$$$$$$$$$$",
"$$$O$O$$$$$$$$$$$$$$$$$$$$$$$$$$$$$$$$$$$$$$$$$$$$$$$$$",
"$$$$$$$$$$$$$$$$$$$O$$$$$$$$$$$$$$$$$$$$$O$$$$$$$$$$$$$",
"$$$$$$$$$$$$$$$$$$O$$$$$$$$$$$$$$$$$$O$$$OO$$$$$$$$$$$$"
};
