/* XPM */
static char *_ff52b77e09341f7ecfc9852fec83766jQ5czAy0ke4MlYiM[] = {
/* columns rows colors chars-per-pixel */
"55 55 170 2 ",
"   c #1E172F",
".  c #1C1C32",
"X  c #251B2F",
"o  c #2B192F",
"O  c #211A30",
"+  c #2A1A30",
"@  c #172536",
"#  c #1A2335",
"$  c #1A2B36",
"%  c #142C3A",
"&  c #192D39",
"*  c #0F363F",
"=  c #11333D",
"-  c #2E2031",
";  c #242A33",
":  c #352233",
">  c #3B2432",
",  c #352833",
"<  c #2D3434",
"1  c #273837",
"2  c #373434",
"3  c #363D33",
"4  c #452832",
"5  c #443332",
"6  c #523730",
"7  c #653D32",
"8  c #15433F",
"9  c #1F493F",
"0  c #294039",
"q  c #234A3E",
"w  c #394535",
"e  c #25503F",
"r  c #345F3E",
"t  c #33673E",
"y  c #38693E",
"u  c #444538",
"i  c #425235",
"p  c #49533A",
"a  c #48583E",
"s  c #555939",
"d  c #694735",
"f  c #614837",
"g  c #724732",
"h  c #7E4F31",
"j  c #735534",
"k  c #42643D",
"l  c #4C693A",
"z  c #437739",
"x  c #48713E",
"c  c #56743D",
"v  c #507E3F",
"b  c #6B7C3B",
"n  c #737C3B",
"m  c #0E3740",
"M  c #0C3C42",
"N  c #123C40",
"B  c #094245",
"V  c #074847",
"C  c #0C4A46",
"Z  c #064748",
"A  c #044B49",
"S  c #0C4E48",
"D  c #03524C",
"F  c #0B534A",
"G  c #07594C",
"H  c #0A5A4C",
"J  c #1A5946",
"K  c #135B49",
"L  c #245A43",
"P  c #2F5B40",
"I  c #1F6447",
"U  c #16634A",
"Y  c #1A664A",
"T  c #1D6A4A",
"R  c #296944",
"E  c #236E49",
"W  c #2D7647",
"Q  c #2E7847",
"!  c #267148",
"~  c #297348",
"^  c #347443",
"/  c #3B7341",
"(  c #347C46",
")  c #3D7B44",
"_  c #4E6F41",
"`  c #556940",
"'  c #437C41",
"]  c #8C6B2F",
"[  c #827436",
"{  c #B76F3D",
"}  c #5E823D",
"|  c #5C8F3F",
" . c #79833A",
".. c #68943F",
"X. c #75AB3E",
"o. c #6ABE30",
"O. c #62B43B",
"+. c #3C8345",
"@. c #37946E",
"#. c #38946E",
"$. c #428543",
"%. c #448A43",
"&. c #498F43",
"*. c #528742",
"=. c #4C9244",
"-. c #519644",
";. c #5B9143",
":. c #549A45",
">. c #599C47",
",. c #539548",
"<. c #549D4A",
"1. c #5A9C4A",
"2. c #688942",
"3. c #609043",
"4. c #649B45",
"5. c #6A9A40",
"6. c #749642",
"7. c #5CA147",
"8. c #5DA54A",
"9. c #65A644",
"0. c #6DA345",
"q. c #62A749",
"w. c #64AA49",
"e. c #6AAE4A",
"r. c #72A542",
"t. c #74AB41",
"y. c #73AF4A",
"u. c #65B04C",
"i. c #6DB44C",
"p. c #6CB849",
"a. c #73B443",
"s. c #76B746",
"d. c #7CBB44",
"f. c #72B54D",
"g. c #78B74B",
"h. c #75BA4C",
"j. c #7ABC4C",
"k. c #75C348",
"l. c #78C648",
"z. c #7CC34C",
"x. c #7AC250",
"c. c #83993D",
"v. c #8CA240",
"b. c #83BC44",
"n. c #D9A066",
"m. c #86C646",
"M. c #88CA47",
"N. c #82C449",
"B. c #86CB4C",
"V. c #87D34B",
"C. c #8CD44A",
"Z. c #8EDA4C",
"A. c #91D74B",
"S. c #93DC4C",
"D. c #81C650",
"F. c #86CB50",
"G. c #8ACE51",
"H. c #87D050",
"J. c #8BD051",
"K. c #8ED252",
"L. c #92D652",
"P. c #97DB53",
"I. c #95DF51",
"U. c #97DB54",
"Y. c #98DC54",
"T. c #97E14D",
"R. c #98E24F",
"E. c #96E050",
"W. c #98E351",
"Q. c #99E550",
/* pixels */
"Q.Q.Q.Q.o.Q.Q.Q.Q.Q.Q.Q.Q.Q.Q.Q.Q.Q.Q.Q.Q.Q.Q.Q.Q.Q.Q.Q.Q.Q.Q.Q.Q.Q.Q.o.o.o.Q.Q.Q.Q.Q.Q.Q.Q.Q.Q.Q.Q.Q.Q.Q.Q.Q.",
"Q.Q.Q.Q.o.o.Q.Q.Q.Q.Q.Q.Q.Q.Q.Q.Q.Q.Q.Q.Q.Q.Q.Q.Q.Q.Q.Q.Q.Q.Q.Q.Q.Q.Q.o.o.Q.Q.Q.Q.Q.Q.Q.Q.Q.Q.Q.Q.Q.Q.Q.Q.Q.Q.",
"Q.Q.Q.o.Q.Q.Q.Q.Q.Q.Q.Q.Q.Q.Q.Q.Q.Q.Q.Q.Q.Q.Q.Q.Q.Q.Q.Q.Q.Q.Q.Q.Q.Q.Q.o.Q.Q.Q.Q.Q.Q.Q.Q.Q.Q.Q.Q.Q.Q.Q.Q.Q.Q.Q.",
"Q.Q.Q.Q.Q.Q.Q.Q.o.Q.Q.Q.Q.Q.Q.Q.Q.Q.Q.Q.Q.Q.Q.Q.Q.Q.Q.Q.Q.Q.Q.Q.Q.Q.Q.Q.Q.Q.Q.Q.Q.Q.Q.Q.Q.Q.Q.Q.Q.Q.Q.Q.Q.Q.Q.",
"Q.Q.Q.Q.Q.Q.Q.Q.Q.Q.Q.Q.Q.Q.Q.Q.Q.Q.Q.Q.Q.Q.Q.Q.Q.Q.Q.Q.Q.Q.Q.Q.Q.Q.Q.Q.Q.Q.Q.Q.Q.Q.Q.Q.Q.Q.Q.Q.Q.Q.Q.Q.Q.Q.Q.",
"Q.Q.Q.Q.Q.Q.Q.Q.Q.Q.Q.Q.Q.Q.Q.Q.Q.Q.Q.Q.Q.Q.Q.Q.Q.Q.Q.Q.Q.Q.Q.Q.Q.Q.Q.Q.Q.Q.Q.Q.Q.Q.Q.Q.Q.Q.Q.Q.Q.Q.Q.Q.Q.Q.Q.",
"Q.Q.Q.Q.Q.Q.Q.Q.Q.Q.Q.Q.Q.Q.Q.Q.Q.Q.Q.Q.Q.Q.Q.Q.Q.Q.Q.Q.Q.Q.Q.Q.Q.Q.Q.Q.Q.Q.Q.Q.Q.Q.Q.Q.Q.Q.o.Q.Q.Q.Q.Q.Q.Q.Q.",
"Q.Q.Q.Q.Q.Q.Q.Q.Q.Q.Q.o.Q.Q.Q.Q.Q.Q.Q.Q.Q.Q.Q.Q.Q.Q.Q.Q.Q.Q.Q.Q.Q.Q.Q.Q.Q.Q.Q.Q.Q.Q.Q.Q.Q.Q.{ n.n.o.Q.Q.Q.Q.Q.",
"Q.Q.Q.Q.Q.Q.Q.Q.Q.Q.Q.o.Q.o.Q.Q.Q.Q.Q.Q.Q.Q.Q.Q.Q.Q.Q.Q.Q.Q.Q.Q.Q.Q.Q.Q.Q.Q.Q.Q.Q.Q.Q.Q.o.{ n.n.Q.Q.Q.Q.Q.Q.Q.",
"Q.Q.Q.Q.Q.Q.Q.Q.o.Q.o.n.{ n.o.Q.Q.Q.Q.Q.Q.Q.Q.Q.Q.Q.Q.@.Q.o.Q.@.Q.Q.Q.Q.Q.Q.Q.Q.Q.Q.Q.Q.Q.Q.Q.n.n.{ Q.Q.Q.Q.Q.",
"Q.Q.Q.Q.Q.Q.Q.Q.o.o.{ n.n.n.n.o.Q.o.Q.Q.Q.Q.Q.Q.Q.o.Q.@.@.o.@.@.o.Q.Q.Q.Q.Q.Q.Q.Q.Q.Q.Q.Q.Q.o.{ n.o.Q.Q.Q.Q.Q.",
"Q.Q.Q.Q.Q.Q.Q.Q.Q.Q.o.{ Q.{ n.Q.o.Q.Q.Q.Q.Q.W.W.W.W.o.W.#.o.#.o.Q.o.Q.Q.Q.Q.Q.Q.Q.Q.Q.Q.Q.Q.Q.Q.o.Q.Q.Q.Q.Q.Q.",
"Q.Q.Q.Q.Q.Q.Q.Q.Q.Q.Q.Q.Q.Q.Q.Q.Q.Q.Q.Q.W.E.Z.l.k.k.k.k.O.k.k.l.Z.E.W.Q.Q.Q.Q.Q.Q.Q.Q.Q.Q.Q.Q.Q.Q.Q.Q.Q.Q.Q.Q.",
"Q.Q.Q.Q.Q.Q.Q.Q.Q.Q.Q.Q.Q.Q.Q.Q.Q.Q.W.I.V.p.q.<.q.i.i.i.i.i.u.<.8.u.l.S.W.Q.Q.Q.Q.Q.Q.Q.Q.Q.Q.Q.Q.Q.Q.Q.Q.Q.Q.",
"Q.Q.Q.Q.Q.Q.Q.Q.Q.Q.Q.Q.Q.Q.Q.Q.W.E.Z.p.<.<.f.D.G.L.L.L.L.L.K.F.j.8.=.w.V.E.W.Q.Q.Q.Q.Q.Q.Q.Q.Q.Q.Q.Q.Q.Q.Q.Q.",
"Q.Q.Q.Q.o.Q.Q.Q.Q.Q.Q.Q.Q.Q.Q.W.S.d.q.7.8.j.L.P.P.Y.Y.Y.Y.Y.Y.P.P.F.w.8.8.s.A.Q.Q.Q.Q.Q.Q.Q.Q.Q.Q.Q.Q.Q.Q.Q.Q.",
"Q.Q.Q.Q.o.o.Q.Q.Q.Q.Q.Q.Q.Q.W.S.a.' 1.D.G.L.U.Y.Y.Y.Y.Y.Y.Y.Y.Y.Y.P.K.F.e.$.9.A.Q.Q.Q.Q.Q.Q.Q.Q.Q.Q.Q.Q.Q.Q.Q.",
"Q.Q.Q.Q.Q.Q.Q.Q.o.Q.Q.Q.Q.Q.E.s./ ,.D.P.P.U.Y.Y.Y.Y.Y.Y.Y.Y.Y.Y.Y.Y.I.P.K.w.) e.E.Q.Q.Q.Q.Q.Q.Q.Q.Q.Q.Q.Q.Q.Q.",
"Q.Q.Q.Q.Q.Q.Q.Q.Q.Q.Q.Q.Q.W.C.*.$.h.P.U.Y.Y.Y.Y.Y.Y.Y.Y.Y.Y.Y.Y.Y.Y.Y.Y.P.F.,.&.B.W.Q.Q.Q.Q.Q.Q.Q.Q.Q.Q.Q.Q.Q.",
"Q.Q.Q.Q.Q.Q.Q.Q.Q.Q.Q.Q.Q.E.t./ >.z.L.P.Y.Y.Y.Y.Y.Y.Y.Y.Y.Y.U.Y.Y.Y.Y.Y.P.F.e.) 4.S.Q.Q.Q.Q.Q.Q.Q.Q.Q.Q.Q.Q.Q.",
"Q.Q.Q.Q.Q.Q.Q.Q.Q.Q.Q.Q.Q.I.;.' -.q.B.L.U.P.Y.P.L.P.Y.Y.Y.P.L.P.P.P.P.P.G.i.>.$.x d.W.Q.Q.Q.Q.Q.Q.Q.Q.Q.o.Q.Q.",
"Q.Q.Q.Q.Q.Q.Q.Q.Q.Q.Q.Q.W.N.' $.&.-.e.z.K.J.L.F.j.G.P.Y.P.L.j.z.L.K.G.F.i.7.=.%./ | A.Q.Q.Q.Q.Q.Q.Q.o.Q.o.Q.Q.",
"Q.Q.Q.Q.Q.Q.Q.Q.Q.Q.Q.Q.S.;.^ %.&.&.=.w.i.e.j.e.7.h.F.K.G.z.q.q.h.f.e.f.:.=.&.%.^ y N.Q.Q.Q.Q.Q.Q.Q.Q.Q.Q.Q.Q.",
"Q.Q.Q.Q.Q.Q.Q.Q.Q.Q.Q.Q.M.x ^ %.&.&.&.-.=.-.:.-.=.>.q.w.w.7.-.=.-.:.=.:.=.&.&.&.) r r.Q.Q.Q.Q.Q.Q.Q.Q.Q.Q.Q.Q.",
"Q.Q.Q.Q.Q.Q.Q.Q.Q.Q.Q.W.r.r ) %.&.&.&.&.&.&.&.&.&.&.=.=.=.=.&.&.&.&.&.&.&.&.&.&.$.t 3.Q.Q.Q.Q.Q.Q.Q.Q.Q.Q.Q.Q.",
"Q.Q.Q.Q.Q.Q.Q.Q.Q.Q.Q.W.5.L ( %.$.%.&.&.&.&.&.&.&.&.&.&.&.&.&.&.&.&.&.&.&.&.%.$.+.R z Q.o.Q.Q.Q.Q.Q.Q.Q.Q.Q.Q.",
"Q.Q.Q.Q.Q.Q.Q.Q.Q.Q.Q.W.5.q R ( Q %.&.&.&.&.&.&.&.&.&.&.&.&.&.&.&.&.&.&.&.%.( ( ^ L z Q.o.Q.Q.Q.Q.Q.Q.Q.Q.Q.Q.",
"Q.Q.Q.Q.Q.Q.Q.Q.Q.Q.Q.W.r.0 J T E %.&.&.&.&.&.&.&.&.&.&.&.&.&.&.&.&.&.&.&.%.( U I 9 } Q.Q.Q.Q.Q.Q.Q.Q.Q.Q.Q.Q.",
"Q.Q.Q.Q.Q.Q.Q.Q.Q.Q.Q.Q.M.k S G Y ( %.&.%.+.$.&.&.&.&.&.&.&.&.&.%.+.%.&.%.( ! H F e 5.Q.Q.Q.Q.Q.Q.Q.Q.Q.Q.Q.Q.",
"Q.Q.Q.@.Q.o.Q.Q.Q.Q.Q.Q.S.*.8 B H U ( $.+.W ( &.&.&.&.&.&.&.&.&.$.~ +.$.+.T K C m P d.Q.Q.Q.Q.Q.Q.Q.Q.Q.Q.Q.Q.",
"Q.Q.Q.@.@.o.Q.@.Q.Q.Q.Q.W.0.1 % V C K E ! Y ~ ( +.%.+.+.+.$.%.( ( Y E E I S A = 1 v C.Q.Q.Q.Q.Q.Q.Q.Q.Q.Q.Q.Q.",
"Q.Q.Q.o.@.o.@.o.Q.o.Q.Q.Q.M.i # = % = C H G K U E W E U T ! ~ U K H H F N % % @ < ..R.Q.Q.Q.Q.Q.Q.Q.Q.Q.Q.Q.Q.",
"Q.Q.Q.Q.o.Q.Q.o.Q.Q.Q.Q.Q.S.l X .   . * D A M A G H F B S H H D M Z D V # . . . 3 r.W.Q.Q.Q.Q.Q.Q.Q.Q.Q.Q.Q.Q.",
"Q.Q.Q.Q.Q.Q.Q.Q.Q.Q.Q.Q.Q.W.5.< @ . . @ B m @ * A D V % M D A B % = B = . . # 1 } C.Q.Q.Q.Q.Q.Q.Q.Q.Q.Q.Q.Q.Q.",
"Q.Q.Q.Q.Q.Q.Q.Q.Q.Q.Q.Q.Q.W.C.l & = * @ # . . @ = B B = m V * % . . # # % m & k m.W.Q.Q.Q.Q.Q.Q.Q.Q.Q.Q.Q.Q.Q.",
"Q.Q.Q.Q.Q.Q.Q.Q.Q.Q.Q.Q.Q.Q.S.} ; % M M % # % M m % = B m % = M * @ % m M m ; c I.Q.Q.Q.Q.Q.Q.Q.Q.Q.Q.Q.Q.Q.Q.",
"Q.Q.Q.Q.Q.Q.Q.Q.Q.Q.Q.Q.Q.Q.E.b.i # % Z Z Z A D A B Z A Z B A D A Z Z Z * # w t.W.Q.Q.Q.Q.Q.Q.Q.Q.Q.Q.Q.Q.Q.Q.",
"Q.Q.Q.Q.Q.Q.Q.Q.Q.Q.Q.Q.Q.Q.Q.T.X.w # % m M B Z M M M * M M m Z B M M % $ 3 ..S.Q.Q.Q.Q.Q.Q.Q.Q.Q.Q.Q.Q.Q.Q.Q.",
"Q.Q.Q.Q.Q.Q.Q.Q.Q.Q.Q.Q.Q.Q.Q.Q.S.t.w O . . # % @ . @ . @ # # % @ . . . < 5.C.W.Q.o.Q.Q.Q.o.Q.Q.Q.Q.Q.Q.Q.Q.Q.",
"Q.Q.Q.Q.Q.Q.Q.Q.Q.Q.Q.Q.Q.Q.Q.Q.Q.S.4.2 + o : > + X : > > + + : : o - , _ B.W.Q.Q.o.o.Q.o.o.Q.Q.Q.Q.Q.Q.Q.Q.Q.",
"Q.Q.Q.Q.Q.Q.Q.Q.Q.Q.Q.Q.Q.Q.Q.Q.Q.W.C.2.u 5 d d 4 > 7 h g 4 > f j 6 p ` y.I.Q.o.Q.Q.o.Q.o.Q.Q.Q.Q.Q.Q.Q.Q.Q.Q.",
"Q.Q.Q.Q.Q.Q.Q.Q.Q.Q.Q.Q.o.Q.Q.Q.Q.Q.W.Z.y.2. .b s s j ] [ s a 6.v.n 0.x.Z.W.Q.o.Q.Q.Q.Q.Q.Q.Q.Q.Q.Q.Q.Q.Q.Q.Q.",
"Q.Q.Q.Q.Q.Q.Q.Q.Q.Q.o.Q.o.Q.o.Q.Q.Q.Q.Q.E.C.N.j.g.s.6.c.b.g.f.H.S.B.Z.W.Q.Q.Q.Q.Q.Q.Q.Q.Q.Q.o.Q.Q.Q.Q.Q.Q.Q.Q.",
"Q.Q.Q.Q.Q.Q.Q.Q.o.Q.Q.o.Q.o.Q.Q.Q.Q.Q.Q.Q.Q.Q.Q.Q.E.C.A.R.Q.Q.Q.Q.Q.Q.Q.Q.Q.Q.Q.Q.Q.Q.Q.Q.Q.Q.Q.Q.Q.Q.Q.Q.Q.Q.",
"Q.Q.Q.Q.Q.Q.Q.Q.Q.Q.Q.o.Q.Q.Q.Q.Q.Q.Q.Q.Q.o.Q.Q.o.Q.Q.Q.Q.Q.Q.Q.Q.Q.Q.Q.Q.Q.Q.Q.Q.Q.Q.Q.Q.Q.Q.Q.Q.Q.Q.Q.Q.Q.Q.",
"Q.Q.Q.Q.Q.Q.Q.Q.Q.Q.Q.Q.Q.Q.Q.Q.Q.Q.Q.Q.Q.o.o.n.n.{ o.Q.Q.o.Q.Q.Q.Q.Q.Q.Q.Q.Q.Q.Q.Q.Q.Q.Q.Q.Q.Q.Q.Q.Q.Q.Q.Q.Q.",
"Q.Q.Q.Q.Q.Q.Q.Q.Q.Q.Q.Q.Q.Q.Q.Q.Q.Q.Q.Q.Q.o.{ n.n.o.Q.Q.o.Q.Q.Q.Q.Q.Q.Q.Q.Q.Q.Q.Q.Q.Q.Q.Q.Q.Q.o.Q.Q.Q.Q.Q.Q.Q.",
"Q.Q.Q.Q.Q.Q.Q.Q.Q.Q.Q.Q.Q.Q.Q.Q.Q.Q.Q.Q.o.Q.Q.{ Q.{ o.Q.Q.Q.Q.Q.Q.Q.Q.Q.Q.Q.Q.Q.Q.Q.Q.Q.@.Q.Q.o.@.Q.Q.Q.Q.Q.Q.",
"Q.Q.Q.Q.Q.Q.Q.Q.Q.Q.Q.Q.Q.Q.Q.Q.Q.Q.Q.Q.Q.Q.Q.Q.Q.Q.Q.Q.Q.Q.Q.Q.Q.Q.Q.Q.Q.Q.Q.Q.Q.Q.Q.Q.Q.@.Q.@.Q.Q.Q.Q.Q.Q.o.",
"Q.Q.Q.Q.Q.Q.Q.Q.Q.Q.Q.Q.Q.Q.Q.Q.Q.Q.Q.Q.Q.Q.Q.Q.Q.Q.Q.Q.Q.Q.Q.Q.Q.Q.Q.Q.Q.Q.Q.Q.Q.Q.Q.o.Q.@.o.@.Q.o.Q.Q.Q.Q.o.",
"Q.Q.o.Q.Q.Q.Q.Q.Q.Q.Q.Q.Q.Q.Q.Q.Q.Q.Q.Q.Q.Q.Q.Q.Q.Q.Q.Q.Q.Q.Q.Q.Q.Q.Q.Q.Q.Q.Q.Q.Q.Q.Q.Q.Q.o.Q.Q.o.Q.Q.Q.Q.Q.Q.",
"Q.Q.o.Q.Q.Q.Q.Q.Q.Q.Q.Q.Q.Q.Q.Q.Q.Q.Q.Q.Q.Q.Q.Q.Q.Q.Q.Q.Q.Q.Q.Q.Q.Q.Q.Q.Q.Q.Q.Q.Q.Q.Q.Q.Q.Q.Q.Q.Q.Q.Q.Q.Q.Q.Q.",
"Q.Q.Q.o.Q.o.Q.Q.Q.Q.Q.Q.Q.Q.Q.Q.Q.Q.Q.Q.Q.Q.Q.Q.Q.Q.Q.Q.Q.Q.Q.Q.Q.Q.Q.Q.Q.Q.Q.Q.Q.Q.Q.Q.Q.Q.Q.Q.Q.Q.Q.Q.Q.Q.Q.",
"Q.Q.Q.Q.Q.Q.Q.Q.Q.Q.Q.Q.Q.Q.Q.Q.Q.Q.Q.o.Q.Q.Q.Q.Q.Q.Q.Q.Q.Q.Q.Q.Q.Q.Q.Q.Q.Q.Q.Q.Q.o.Q.Q.Q.Q.Q.Q.Q.Q.Q.Q.Q.Q.Q.",
"Q.Q.Q.Q.Q.Q.Q.Q.Q.Q.Q.Q.Q.Q.Q.Q.Q.Q.o.Q.Q.Q.Q.Q.Q.Q.Q.Q.Q.Q.Q.Q.Q.Q.Q.Q.Q.o.Q.Q.Q.o.o.Q.Q.Q.Q.Q.Q.Q.Q.Q.Q.Q.Q."
};
