/* XPM */
static char *_0de912d7a1f43c5a21ccbeb92f20f87rcVvz7JxuuPfZKYE[] = {
/* columns rows colors chars-per-pixel */
"55 55 10 1 ",
"  c black",
". c #8F563B",
"X c #B76F3D",
"o c #6ABE30",
"O c #37946E",
"+ c #FBF236",
"@ c #D9A066",
"# c #99E550",
"$ c #EEC39A",
"% c #EEEEEE",
/* pixels */
"####o##############################ooo#################",
"####oo#############################oo##################",
"###o###############################o###################",
"########o##############################################",
"#######################################################",
"#######################################################",
"##############################################o########",
"###########o##################################X@@o#####",
"###########o#o##############################oX@@#######",
"########o#o@X@o############O#o#O###############@@X#####",
"########ooX@@@@o#o#######o#OOoOOo#############oX@o#####",
"##########oX#X@#o#########o#OoOo#o##############o######",
"############################o##########################",
"#######################################################",
"##########################       ######################",
"####o###################   OOOOO ######################",
"####oo#################  OOOOOOOO  ####################",
"########o#############     OOOOOOO  #O#################",
"###################### +++   OOOOOO  #o################",
"##################### ++++++  OOOOOO o#################",
"##################### +++++++  OOOOOO ##############o##",
"#################### +++  +++   OOOOO ############o#o##",
"#################### ++ $  ++ $$ O OO #################",
"#################### + $$$  +     # O #################",
"##############o##o###   $$$ + +++ # O ###o#############",
"################oooo $ %$$$ + ++  ## ####oo#o##########",
"################o#o# $ $$$$   +  #########o#o##########",
"##################### $$$$      #######################",
"######################     OOO  #######################",
"###O#o#################  OO  OO #######################",
"###OOo#O############### O  oo O #######################",
"###oOoOo#o#############   oo OO  ######################",
"####o##o############### @oo  OO @ #####################",
"####################### @@  OOO  ######################",
"#######################   OO    #######################",
"###################### . OOO .. #######################",
"###################### ..    .. #######################",
"######################    ##    #######################",
"#########################################o###o#########",
"#########################################oo#oo#########",
"#######################################o##o#o##########",
"############o##########################o###############",
"##########o#o#o###############################o########",
"########o##o#o#########################################",
"###########o#########o##o##############################",
"#####################oo@@Xo##o#########################",
"#####################oX@@o##o##################o#######",
"####################o##X#Xo#################O##oO######",
"#############################################O#O######o",
"###########################################o#OoO#o####o",
"##o##########################################o##o######",
"##o####################################################",
"###o#o#################################################",
"###################o#####################o#############",
"##################o##################o###oo############"
};
