/* XPM */
static char *a1a38f2ba6824ab8b76a6bf0d5d8dd201UBsKgtmSCuN3z88[] = {
/* columns rows colors chars-per-pixel */
"55 55 10 1 ",
"  c black",
". c #8F563B",
"X c #B76F3D",
"o c #6ABE30",
"O c #37946E",
"+ c #FBF236",
"@ c #D9A066",
"# c #99E550",
"$ c #EEC39A",
"% c #EEEEEE",
/* pixels */
"####o##############################ooo#################",
"####oo#############################oo##################",
"###o###############################o###################",
"########o##############################################",
"#######################################################",
"#######################################################",
"##############################################o########",
"###########o##################################X@@o#####",
"###########o#o##############################oX@@#######",
"########o#o@X@o############O#o#O###############@@X#####",
"########ooX@@@@o#o#######o#OOoOOo#############oX@o#####",
"##########oX#X@#o#########o#OoOo#o##############o######",
"############################o##########################",
"#######################################################",
"######################       ##########################",
"####o################# OOOOO   ########################",
"####oo##############  OOOOOOOO  #######################",
"########o##########  OOOOOOO     Oo##O#################",
"##################  OOOOOO   +++ #O#O#o################",
"################## OOOOOO  ++++++ Oooo#################",
"################# OOOOOO  +++++++ #o################o##",
"################# OOOOO   +++  +++ ###############o#o##",
"################# OO O $$ ++  $ ++ ####################",
"################# O #     +  $$$ + ####################",
"##############o## O # +++ + $$$   #######o#############",
"################oo o#  ++ + $$$% $ ######oo#o##########",
"################o#o###  +   $$$$ $ #######o#o##########",
"#######################      $$$$ #####################",
"#######################  OOO     ######################",
"###O#o################# OO  OO  #######################",
"###OOo#O###############   oo OO #######################",
"###oOoOo#o#############  oo OOO  ######################",
"####o##o############## @oo      @ #####################",
"###################### @@ OOO +  ######################",
"######################   OOOOO  #######################",
"#######################   OOO .. ######################",
"####################### ..    .. ######################",
"########################  ###    ######################",
"#########################################o###o#########",
"#########################################oo#oo#########",
"#######################################o##o#o##########",
"############o##########################o###############",
"##########o#o#o###############################o########",
"########o##o#o#########################################",
"###########o#########o##o##############################",
"#####################oo@@Xo##o#########################",
"#####################oX@@o##o##################o#######",
"####################o##X#Xo#################O##oO######",
"#############################################O#O######o",
"###########################################o#OoO#o####o",
"##o##########################################o##o######",
"##o####################################################",
"###o#o#################################################",
"###################o#####################o#############",
"##################o##################o###oo############"
};
