/* XPM */
static char *_1cc98b8fca14acda064a0183fef44b5AyNGbZQhwj0VW1SR[] = {
/* columns rows colors chars-per-pixel */
"55 55 10 1 ",
"  c black",
". c #AC3232",
"X c #B76F3D",
"o c #6ABE30",
"O c #37946E",
"+ c #FBF236",
"@ c #D9A066",
"# c #99E550",
"$ c #847E87",
"% c white",
/* pixels */
"####o##############################ooo#################",
"####oo#############################oo##################",
"###o###############################o###################",
"########o##############################################",
"#######################################################",
"#######################################################",
"##############################################o########",
"###########o##################################X@@o#####",
"###########o#o##############################oX@@#######",
"########o#o@X@o############O#o#O###############@@X#####",
"########ooX@@@@o#o#######o#OOoOOo#############oX@o#####",
"##########oX#X@#o#########o#OoOo#o##############o######",
"############################o##########################",
"###################      ##############################",
"################## ...... ######        ###############",
"####o############ ....    ####   %%%%%%% ##############",
"####oo########## .... %$$$ ### %%%%%%%%% ##############",
"########o####### ... %%%%$$    %%%%%%%%% ##############",
"################ .. %%%%%%$$ %%%%%%%%%%% ##############",
"################   %%%%%%%%$ %%%%%%%$$$$ ##############",
"################ %%%%%%%%%%$ %%%%%%$$    ###########o##",
"################ %%%%%% %%%$%%%%%%$$ %%%% ########o#o##",
"################     %% %%%%%%%%%$$  %%%% #############",
"################ ++++ % %%%%%%%%%   %%%%% #############",
"##############o# +++++ %%%%%%%%%$%%%%%%%% #############",
"############### +++++ %%%%%%%%$$%%%%%%%%% o#o##########",
"############### ++++ $%%%%%%%$%%%%%%%%%   o#o##########",
"################      $%%%%%$%%%%%%%%% % ##############",
"#################   . $%%%%% $%%%%%%% %$ ##############",
"###O#o###########  .. $%%%%%% $%%%%%%%$$ ##############",
"###OOo#O######### ... $%%%%%%% %%%%$$$$ ###############",
"###oOoOo#o########   $$$%%%%%% %%%$$$$$ ###############",
"####o##o############ $$$$%%%%% $$$$$$$$ ###############",
"#################### $$$$$$$$ +    $$   ###############",
"#################### $$$$$$$$ +++++   #################",
"#####################    $$$$ +++++ ###################",
"########################     ++++   ###################",
"############################ ++++ #####################",
"############################      #######o###o#########",
"#########################################oo#oo#########",
"#######################################o##o#o##########",
"############o##########################o###############",
"##########o#o#o###############################o########",
"########o##o#o#########################################",
"###########o#########o##o##############################",
"#####################oo@@Xo##o#########################",
"#####################oX@@o##o##################o#######",
"####################o##X#Xo#################O##oO######",
"#############################################O#O######o",
"###########################################o#OoO#o####o",
"##o##########################################o##o######",
"##o####################################################",
"###o#o#################################################",
"###################o#####################o#############",
"##################o##################o###oo############"
};
