/* XPM */
static char *_c90ebe141d94965c537df2323b88848bOylqDGR4ZMPOknc[] = {
/* columns rows colors chars-per-pixel */
"55 55 9 1 ",
"  c black",
". c #8F563B",
"X c #B76F3D",
"o c #6ABE30",
"O c #37946E",
"+ c #FBF236",
"@ c #D9A066",
"# c #99E550",
"$ c #EEC39A",
/* pixels */
"####o##############################ooo#################",
"####oo#############################oo##################",
"###o###############################o###################",
"########o##############################################",
"#######################################################",
"#######################################################",
"##############################################o########",
"###########o##################################X@@o#####",
"###########o#o##############################oX@@#######",
"########o#o@X@o############O#o#O###############@@X#####",
"########ooX@@@@o#o#######o#OOoOOo#############oX@o#####",
"##########oX#X@#o#########o#OoOo#o##############o######",
"############################o##########################",
"#######################################################",
"#########################      ########################",
"####o###################  OOOO  #######################",
"####oo#################  OOOOOO  ######################",
"########o#############   OOOOOO   o##O#################",
"###################### O OOOOOO O O#O#o################",
"###################### O OOOOOO O Oooo#################",
"##################### OOO OOOO OO  o################o##",
"###################    OOO OO OOO    #############o#o##",
"################### $$ OOO OO OOO $$ ##################",
"####################   OOOO  OOOO   ###################",
"##############o##o### + OOOOOOO  + ######o#############",
"################oooo# ++  OOOO +++ ######oo#o##########",
"################o#o##   ++    ++   #######o#o##########",
"######################   ++++++   #####################",
"#######################          ######################",
"###O#o################ o OOOOOO o #####################",
"###OOo#O############# oo OOOOOO oo ####################",
"###oOoOo#o########## @@  OOOOOO  @@ ###################",
"####o##o############  @ O      O @  ###################",
"#####################   OOOOOOOO   ####################",
"#######################  OOOOOO  ######################",
"###################### ..      .. #####################",
"###################### .. #### .. #####################",
"#######################   ####   ######################",
"#########################################o###o#########",
"#########################################oo#oo#########",
"#######################################o##o#o##########",
"############o##########################o###############",
"##########o#o#o###############################o########",
"########o##o#o#########################################",
"###########o#########o##o##############################",
"#####################oo@@Xo##o#########################",
"#####################oX@@o##o##################o#######",
"####################o##X#Xo#################O##oO######",
"#############################################O#O######o",
"###########################################o#OoO#o####o",
"##o##########################################o##o######",
"##o####################################################",
"###o#o#################################################",
"###################o#####################o#############",
"##################o##################o###oo############"
};
